<?xml version="1.0" standalone="no"?><!-- Generator: Gravit.io --><svg xmlns="http://www.w3.org/2000/svg" xmlns:xlink="http://www.w3.org/1999/xlink" style="isolation:isolate" viewBox="0 0 1920 2160" width="1920" height="2160"><defs><clipPath id="_clipPath_Ce7Zx1k0DmMwyo22qRvNOIGyqSSZ0fXP"><rect width="1920" height="2160"/></clipPath></defs><g clip-path="url(#_clipPath_Ce7Zx1k0DmMwyo22qRvNOIGyqSSZ0fXP)"><path d=" M 1122.196 -63.865 L 2173.685 937.445 L 2075.607 1046.927 L 928.321 -70.707 L 1122.196 -63.865 Z " fill="rgb(219,169,251)"/><path d=" M 1076.579 -41.056 L 2128.068 960.253 L 2029.989 1069.736 L 882.703 -47.899 L 1076.579 -41.056 Z " fill="rgb(176,70,242)"/><path d=" M 1021.837 -31.932 L 1970.686 882.703 L 1963.844 1988.933 Q 846.209 2217.022 862.175 1977.529 Q 878.141 1738.036 -43.337 1968.406 L -41.056 -29.652 L 1021.837 -31.932 Z " fill="rgb(141,16,217)"/><defs><filter id="XdQOaWiuhlt3xVWcOYASa0HuL0gfTaDi" x="-200%" y="-200%" width="400%" height="400%" filterUnits="objectBoundingBox" color-interpolation-filters="sRGB"><feGaussianBlur xmlns="http://www.w3.org/2000/svg" in="SourceGraphic" stdDeviation="8.587218125678056"/><feOffset xmlns="http://www.w3.org/2000/svg" dx="2" dy="2" result="pf_100_offsetBlur"/><feFlood xmlns="http://www.w3.org/2000/svg" flood-color="#000000" flood-opacity="0.3"/><feComposite xmlns="http://www.w3.org/2000/svg" in2="pf_100_offsetBlur" operator="in" result="pf_100_dropShadow"/><feBlend xmlns="http://www.w3.org/2000/svg" in="SourceGraphic" in2="pf_100_dropShadow" mode="normal"/></filter></defs><g filter="url(#XdQOaWiuhlt3xVWcOYASa0HuL0gfTaDi)"><path d=" M -124.844 659.554 Q 1111.82 852.71 1015.243 1142.443 Q 918.665 1432.175 2145.908 1797.286 L 2094.085 2294.307 L -153.111 2230.707 L -124.844 659.554 Z " fill="rgb(219,169,251)"/></g></g></svg>